<svg xmlns="http://www.w3.org/2000/svg" xmlns:xlink="http://www.w3.org/1999/xlink"><symbol viewBox="0 0 100 125" id="ball"><path d="M50.251 7.844c-23.22 0-42.044 18.825-42.044 42.042 0 23.222 18.825 42.044 42.044 42.044 23.217 0 42.042-18.822 42.042-42.044 0-23.217-18.824-42.042-42.042-42.042zM36.124 87.22c-12.44-4.71-21.904-15.451-24.832-28.659 3.235 2.132 17.399 9.413 51.877 1.976.806 2.889 2.955 5.181 5.696 6.081-6.629 22.785-23.98 22.413-32.741 20.602zm35.333-38.236c-1.886 0-3.625.639-5.045 1.71-5.178-6.149-24.344-27.841-40.541-32.399a39.726 39.726 0 0 1 24.381-8.32 39.73 39.73 0 0 1 23.927 7.965c7.582 10.473.653 31.496.576 31.728a8.3 8.3 0 0 0-3.298-.684zm5.383 16.075c1.98-1.653 3.254-4.195 3.254-7.051 0-.927-.134-1.821-.382-2.664 3.446-1.339 8.792-4.219 10.444-5.118a39.688 39.688 0 0 1-6.561 21.59c-4.379.917-6.154-4.203-6.755-6.757z"/><text y="115" font-size="5" font-weight="bold" font-family="'Helvetica Neue', Helvetica, Arial-Unicode, Arial, Sans-serif">Created by shimaru</text><text y="120" font-size="5" font-weight="bold" font-family="'Helvetica Neue', Helvetica, Arial-Unicode, Arial, Sans-serif">from the Noun Project</text></symbol><symbol viewBox="0 0 48 60" id="boots"><path fill-rule="evenodd" clip-rule="evenodd" d="M24.078 4.613a3.07 3.07 0 0 1 2.06.778c.558.503.903 1.206.903 1.986s-.346 1.482-.903 1.985a3.07 3.07 0 0 1-2.06.778 3.079 3.079 0 0 1-2.059-.778 2.756 2.756 0 0 1-.739-1.072h-.946v4.616h.984c.156-.371.397-.704.701-.978a3.078 3.078 0 0 1 2.059-.777c.799 0 1.528.297 2.06.777.558.504.903 1.206.903 1.986s-.346 1.483-.903 1.986a3.074 3.074 0 0 1-2.06.778 3.082 3.082 0 0 1-2.059-.776 2.738 2.738 0 0 1-.772-1.169h-.913v4.616h1.009a2.77 2.77 0 0 1 .676-.919 3.073 3.073 0 0 1 2.059-.777c.799 0 1.528.297 2.06.777.558.503.903 1.205.903 1.986 0 .78-.346 1.481-.903 1.985a3.078 3.078 0 0 1-2.06.777 3.073 3.073 0 0 1-2.059-.777 2.74 2.74 0 0 1-.79-1.226h-.896v2.615H7.709a4.98 4.98 0 0 0-3.525 1.467 4.978 4.978 0 0 0-1.468 3.525v2.053h1.225v1.218H2.716v1.722h10.577a6.833 6.833 0 0 1 .635-1.722h-1.463v-1.218h2.291a6.807 6.807 0 0 1 5.196-2.415h10.799v-.789h-.441a.912.912 0 1 1 0-1.826h.442v-4.616h-.442a.913.913 0 0 1 0-1.827h.442v-4.616h-.442a.913.913 0 0 1 0-1.827h.442V8.957h1.969v-4.63H20.333v2.136h.946c.155-.41.411-.776.739-1.072a3.071 3.071 0 0 1 2.06-.778zm12.245 6.457c-.799 0-1.528.297-2.059.776a2.752 2.752 0 0 0-.74 1.074h-.946v-2.137h12.386V37.291h-1.988v1.218h1.988v1.723H14.961v-1.723h1.225v-1.218h-1.225v-2.053c0-1.371.562-2.62 1.466-3.524a4.98 4.98 0 0 1 3.525-1.468h12.625v-2.615h.895c.145.474.421.893.792 1.225.53.481 1.26.778 2.059.778.797 0 1.526-.297 2.06-.778.558-.503.903-1.205.903-1.985s-.346-1.482-.903-1.985a3.08 3.08 0 0 0-2.06-.778c-.799 0-1.528.297-2.059.778-.288.26-.521.572-.676.92h-1.011V21.19h.913c.149.448.419.848.773 1.168.53.479 1.26.776 2.059.776.797 0 1.526-.297 2.06-.776a2.665 2.665 0 0 0 .903-1.986c0-.78-.346-1.482-.903-1.985a3.08 3.08 0 0 0-2.06-.778c-.799 0-1.528.297-2.059.778a2.744 2.744 0 0 0-.702.977h-.984v-4.616h.946c.155.409.409.775.74 1.072.53.479 1.26.776 2.059.776.797 0 1.526-.297 2.06-.777a2.662 2.662 0 0 0 .903-1.984c0-.782-.346-1.483-.903-1.987a3.07 3.07 0 0 0-2.059-.778zm-15.67 30.988V45.5h-7.519V39.045H9.625v-3.444H8.409v3.444H.89V28.783c0-1.876.767-3.583 2.002-4.817a6.798 6.798 0 0 1 4.816-2.002h10.797v-.789h-.442a.914.914 0 0 1 0-1.827h.442v-4.616h-.442a.914.914 0 0 1 0-1.827h.442V8.29h-.442a.914.914 0 0 1 0-1.827h.442V2.5h16.041v6.457H46.791V45.5H39.271v-3.442h-1.31V45.5H30.442v-3.442h-1.055V45.5H21.87v-3.442h-1.217zm24.311.249H41.1v1.366h3.864v-1.366zm-8.828 0h-3.867v1.366h3.867v-1.366zm-8.573 0h-3.866v1.366h3.866v-1.366zm-8.736 0h-3.866v1.366h3.866v-1.366zm22.931-5.016h-2.436v1.218h2.436v-1.218zm-3.653 0H35.67v1.218h2.436v-1.218h-.001zm-3.653 0h-2.436v1.218h2.436v-1.218zm-3.652 0h-2.437v1.218H30.8v-1.218zm-3.654 0H24.71v1.218h2.435v-1.218h.001zm-3.653 0h-2.436v1.218h2.436v-1.218zm-3.654 0h-2.436v1.218h2.436v-1.218zM37.163 26.24a1.25 1.25 0 0 0-.84-.307c-.271 0-.516.077-.713.208a.906.906 0 0 1-.172 1.316l.044.043c.212.188.509.307.841.307.333 0 .631-.118.84-.307.183-.166.298-.39.298-.631s-.115-.463-.298-.629zm-1.584-6.578a.913.913 0 0 1-.108 1.329l.011.01c.212.189.509.306.841.306.333 0 .631-.116.84-.306a.858.858 0 0 0 .298-.63.855.855 0 0 0-.298-.63 1.25 1.25 0 0 0-.84-.307c-.285 0-.544.086-.744.228zm-.052-6.497a.913.913 0 0 1 0 1.335c.205.166.484.269.796.269.333 0 .631-.118.84-.307a.855.855 0 0 0 .298-.629.855.855 0 0 0-.298-.63 1.246 1.246 0 0 0-.84-.307c-.311 0-.589.103-.796.269zM13.134 35.852h-1.682v1.365h1.682v-1.365zm-6.551 0H2.716v1.365h3.866v-1.365h.001zm4.665-5.017v1.218H8.813v-1.218h2.435zm-3.653 0v1.218H5.16v-1.218h2.435zm15.772-11.15c.195-.129.441-.207.711-.207.333 0 .631.118.839.307a.849.849 0 0 1 .297.63.845.845 0 0 1-.297.629 1.246 1.246 0 0 1-.839.307c-.333 0-.63-.118-.839-.305l-.045-.043a.914.914 0 0 0 .173-1.318zm-.031-6.478c.2-.143.458-.229.742-.229.333 0 .631.117.839.306a.849.849 0 0 1 .297.63.845.845 0 0 1-.297.63 1.247 1.247 0 0 1-.839.308c-.333 0-.63-.118-.839-.308l-.012-.009a.913.913 0 0 0 .109-1.328zm-.055-6.498c.207-.167.486-.27.796-.27.333 0 .631.118.839.307.185.166.297.389.297.63s-.112.465-.297.63a1.246 1.246 0 0 1-.839.307c-.31 0-.589-.104-.796-.27a.91.91 0 0 0 0-1.334z"/><text y="63" font-size="5" font-weight="bold" font-family="'Helvetica Neue', Helvetica, Arial-Unicode, Arial, Sans-serif">Created by creative stall</text><text y="68" font-size="5" font-weight="bold" font-family="'Helvetica Neue', Helvetica, Arial-Unicode, Arial, Sans-serif">from the Noun Project</text></symbol><symbol viewBox="0 0 100 125" id="flip-flop"><path d="M45.936 12.226c-9.453-4.472-19.887-2.289-26.445 4.722-6.554 7.004-5.738 20.822-5.738 20.822 6.243-10.676 19.239-13.007 22.675-13.443l1.293-2.491.734.386-1.08 2.079c.32.247 1.535 1.366 4.455 5.928 3.495 5.465 3.012 12.905 3.012 12.905s.839-2.349 2.732-6.33c3.354-7.194 7.819-20.105-1.638-24.578z"/><path d="M35.816 27.451c-.575.738-5.234 2.013-10.782 5.324-5.544 3.313-8.416 5.242-10.006 10.574-1.598 5.331 1.101 10.84 1.413 12.578.314 1.733 2.396 5.928 1.418 6.044-4.604.688-5.637-7.312-5.637-7.312s-2.806 11.767-4.3 18.548c-1.494 6.788.773 9.153 2.373 10.347 1.594 1.194 9.916 4.484 15.008 3.313 5.091-1.175 6.284-5.815 7.735-10.743 1.454-4.929 3.048-13.6 3.048-13.6s-.913.662-2.569 2.248c-1.659 1.586-4.526 3.516-4.792.777-.265-2.744 7.568-8.971 11.211-14.363 3.641-5.392 1.258-8.735.5-12.278-.756-3.539-4.62-11.457-4.62-11.457zM92.682 24.532C89.358 15.528 80.587 9.468 70.135 9.92c-10.448.454-11.346 14.082-11.048 22.018.202 4.404.067 6.891.067 6.891s2.44-7.044 7.781-10.722c4.461-3.074 6.016-3.636 6.41-3.739l-.189-2.337.825-.067.228 2.799c2.99 1.733 14.068 8.923 15.678 21.188 0-.001 6.115-12.416 2.795-21.419z"/><path d="M73.555 27.881s-6.631 5.794-8.704 8.767c-2.068 2.967-5.566 5.125-4.303 11.506 1.266 6.384 6.068 15.164 4.761 17.591-1.308 2.422-3.204-.474-4.115-2.578-.913-2.105-1.498-3.064-1.498-3.064s-1.89 8.604-2.463 13.709c-.573 5.109-1.279 9.85 2.958 12.906 4.239 3.056 13.184 3.257 15.121 2.773 1.933-.482 4.94-1.784 6.197-8.62 1.255-6.829 3.234-18.764 3.234-18.764s-4.054 6.972-8.032 4.556c-.856-.492 2.689-3.546 3.65-5.026.962-1.475 5.591-5.506 6.186-11.039.598-5.533-1.297-8.428-5.124-13.632-3.824-5.199-7.624-8.181-7.868-9.085z"/><text y="115" font-size="5" font-weight="bold" font-family="'Helvetica Neue', Helvetica, Arial-Unicode, Arial, Sans-serif">Created by shimaru</text><text y="120" font-size="5" font-weight="bold" font-family="'Helvetica Neue', Helvetica, Arial-Unicode, Arial, Sans-serif">from the Noun Project</text></symbol></svg>